PathFileType	4	(X/Y/Z)	C:\Users\WrightLab\Desktop\Jo\P1_boxCal29.trc
DataRate	CameraRate	NumFrames	NumMarkers	Units	OrigDataRate	OrigDataStartFrame	OrigNumFrames
100.00	100.00	      16	19	mm	100.00	721	      1153
Frame#	Time	Headset_Front			Headset_Back			Headset_Left			Headset_Right			Left_Shoulder			Right_Shoulder			Sternum			C7			Left Elbow			Right Elbow			Left Wrist			Right Wrist			Left ASIS			Right ASIS			S2			Left Knee			Right Knee			Left Ankle			Right Ankle			
		X1	Y1	Z1	X2	Y2	Z2	X3	Y3	Z3	X4	Y4	Z4	X5	Y5	Z5	X6	Y6	Z6	X7	Y7	Z7	X8	Y8	Z8	X9	Y9	Z9	X10	Y10	Z10	X11	Y11	Z11	X12	Y12	Z12	X13	Y13	Z13	X14	Y14	Z14	X15	Y15	Z15	X16	Y16	Z16	X17	Y17	Z17	X18	Y18	Z18	X19	Y19	Z19	

721	7.200	-391.37051	1301.92725	-42.67572	-491.05899	1466.00330	-158.97879	-445.47882	1338.10620	-258.45560	-341.86688	1200.34875	-143.52258	-624.09308	1251.22083	-320.17789	-534.28442	1228.84326	36.62066	-504.76120	1099.81689	-145.32516	-691.08789	1297.44373	-119.17810	-692.52588	938.88678	-390.02283	-540.67828	971.43927	138.78952	-504.77454	787.87280	-377.88821	-366.39447	783.76965	110.47868	-560.82623	827.59216	-246.21597	-552.38281	831.31854	-43.37030	-864.78693	926.31842	-103.66887	-726.24866	445.82745	-304.38489	-645.20453	447.14389	44.93551	-760.53143	75.82096	-298.22922				
722	7.210	-392.97049	1301.42188	-44.69684	-489.96078	1465.92957	-158.25546	-444.90387	1338.21912	-258.41547	-341.46021	1200.12085	-143.56303	-623.90466	1251.46338	-320.20920	-533.29321	1228.68201	36.17171	-504.35861	1099.69202	-145.28369	-690.39331	1297.62207	-118.53105	-693.29785	938.79291	-389.29825	-538.12726	970.31976	137.90382	-505.67786	787.86523	-378.01355	-364.52429	783.72186	110.79233	-561.37701	826.85492	-246.53217	-551.75873	830.87610	-44.17830	-864.36157	926.52216	-103.04308	-726.34784	445.99033	-304.44006	-643.82935	447.01236	44.52315	-760.44470	75.99265	-298.59036				
723	7.220	-392.18552	1300.90698	-44.52555	-489.34689	1465.86914	-157.89937	-444.08209	1338.12817	-258.30383	-340.47064	1199.98120	-143.22577	-623.76593	1251.73401	-319.79016	-532.38873	1227.25183	34.56758	-504.01086	1099.52783	-145.39067	-689.76105	1297.65564	-117.89426	-694.02795	939.00049	-388.07703	-536.63654	970.13751	137.55019	-506.52805	787.88873	-377.68262	-361.97238	783.29358	110.70991	-561.72522	826.78113	-246.86368	-551.30255	830.87042	-44.50417	-863.72888	926.44934	-102.82645	-726.39160	446.02914	-304.42239	-643.31287	447.01752	44.39956	-760.37433	75.85123	-298.11923				
724	7.230	-391.54343	1300.50317	-44.39243	-488.84650	1465.92432	-157.97166	-443.58731	1338.25830	-258.35513	-339.62805	1199.68164	-143.06746	-623.72772	1252.07263	-319.34827	-531.45923	1227.35571	33.98940	-503.62531	1099.49011	-145.14459	-688.77496	1297.64111	-117.44423	-694.39661	939.04462	-387.85486	-535.15942	970.47437	137.28217	-507.26172	787.83942	-377.55460	-360.50867	783.14490	111.06380	-562.09570	826.28070	-247.36455	-550.74451	830.65710	-45.40336	-862.98590	926.53442	-102.08540	-726.56384	446.32980	-304.60184	-642.76001	446.81750	44.03476	-760.44495	76.02035	-298.58344				
725	7.240	-390.60986	1300.47107	-43.92106	-488.14838	1465.80688	-157.96323	-443.17145	1338.28857	-258.35699	-338.94876	1199.54907	-143.03619	-623.52045	1252.42688	-319.30737	-530.15350	1227.36316	34.56196	-503.33380	1099.35327	-145.23303	-688.10077	1297.60852	-116.87666	-694.88708	939.73773	-387.22739	-533.01196	969.80939	136.85709	-508.03473	787.75818	-377.37448	-358.86658	783.02594	111.19443	-561.89490	826.55609	-247.51665	-550.56842	830.71887	-45.40342	-862.51166	926.51233	-101.70130	-726.60767	446.36917	-304.58398	-641.75543	446.30640	43.31887	-760.43604	76.04639	-298.57834	-648.81714	56.75820	-9.52350	
726	7.250	-387.91644	1300.54370	-41.69489	-487.44626	1465.61670	-157.61977	-442.04269	1338.16528	-258.03522	-338.39175	1199.70117	-142.73692	-623.43866	1252.54163	-319.28882	-528.53857	1226.92737	35.40282	-502.40256	1098.81726	-144.31187	-687.12421	1297.57678	-116.18493	-695.31366	940.51892	-387.09396	-531.68964	969.26886	136.56082	-508.53027	788.06018	-377.34750	-357.00232	783.18549	111.06010	-561.54425	826.37531	-247.63054	-550.10004	830.83496	-45.76127	-861.87811	926.67810	-101.44896	-726.64648	446.40765	-304.56720	-641.02368	446.12402	43.29647	-760.44373	76.04865	-298.57657	-648.75867	56.71014	-9.58155	
727	7.260	-387.55499	1300.41797	-41.19028	-486.63489	1465.55981	-156.78986	-441.54739	1338.75806	-257.87985	-337.87628	1199.46973	-142.54893	-623.00385	1251.88403	-318.84714	-526.78064	1226.76160	36.09500	-501.85641	1099.15332	-145.92532	-686.47406	1297.75500	-115.42287	-695.82208	940.44586	-386.28519	-530.43884	969.11353	136.26451	-508.66162	788.20978	-377.32394	-355.60010	782.51056	110.44883	-561.11957	827.07581	-248.70082	-548.46326	830.44733	-45.81951	-861.17609	926.82123	-99.86730	-726.66241	446.42987	-304.55856	-640.23376	446.28796	43.03230	-760.39044	75.92427	-298.09851				
728	7.270	-386.81543	1300.28003	-40.90034	-485.76920	1465.52002	-156.32596	-440.56085	1337.67969	-257.64554	-337.34109	1199.57458	-142.79958	-623.25806	1251.98206	-318.51474	-526.18579	1226.07202	35.70866	-501.22989	1099.56934	-147.26712	-685.83539	1297.59387	-114.79027	-695.91614	940.59460	-385.99200	-529.45056	969.04156	136.39702	-509.05484	788.41797	-377.45630	-354.57150	782.19904	110.14597	-560.57062	827.35107	-249.00700	-548.03412	830.78058	-46.30581	-860.53326	926.84613	-99.59669	-726.68994	446.46268	-304.54517	-638.56677	446.63110	42.51276	-760.23865	76.12160	-298.23450				
729	7.280	-386.40851	1300.38318	-40.90952	-485.32462	1465.60339	-156.23979	-440.43939	1338.21973	-257.56876	-336.65359	1199.32129	-142.60571	-623.32733	1252.09546	-318.33536	-525.80981	1226.01172	35.86757	-500.21335	1099.01331	-146.31567	-685.21259	1297.50195	-114.59869	-696.07147	940.85669	-386.04895	-527.86932	968.85321	135.79842	-509.33078	788.84900	-377.54288	-353.89529	782.13971	110.43781	-559.77240	827.53754	-249.40321	-547.01801	830.42242	-46.26759	-859.55090	926.87823	-98.93971	-726.59845	446.60712	-304.47580	-637.97083	446.37061	42.52945	-760.23547	76.16013	-298.22540	-648.73267	56.65290	-9.66857	
730	7.290	-385.79572	1300.85205	-40.51484	-484.75562	1465.62622	-155.95163	-439.77563	1338.01721	-257.12811	-335.87051	1199.28699	-142.60883	-622.63873	1253.14307	-317.41245	-525.38202	1225.89685	36.11548	-499.89108	1098.97778	-146.12138	-684.76746	1297.62537	-113.93124	-696.05969	941.09247	-386.05539	-526.80811	968.51971	135.80272	-509.34299	788.90717	-377.52292	-352.47366	782.17932	110.50914	-558.89917	828.20129	-249.94208	-546.90955	830.46216	-46.26856	-858.83868	926.88202	-98.29063	-726.67737	446.59000	-304.20856	-636.99237	446.49652	42.96415	-760.21271	76.18346	-298.22314				
731	7.300	-385.19189	1300.60876	-40.62083	-484.46182	1465.65442	-156.10426	-439.49362	1338.44971	-256.99350	-335.54739	1199.51111	-142.66379	-622.50446	1253.22131	-317.39923	-524.78436	1225.91711	36.43388	-499.59726	1098.92871	-145.98677	-684.37457	1297.59351	-113.66582	-695.97235	941.33301	-385.72263	-526.26807	968.44708	136.09537	-509.21558	789.09094	-377.55606	-351.39294	782.00299	110.54118	-558.89917	828.20129	-249.94208	-545.58582	830.41589	-46.07244	-858.23047	926.95715	-97.96370	-726.70459	446.63821	-304.00882	-636.05023	446.44934	42.68480	-760.14349	76.06748	-297.74579				
732	7.310	-384.32303	1300.61475	-39.56844	-484.17572	1465.82813	-155.95288	-438.86938	1338.92114	-257.10754	-334.93869	1199.52307	-142.70583	-622.40863	1253.28735	-317.38824	-523.84985	1225.94983	36.49748	-499.26450	1098.93262	-145.68375	-683.76025	1297.83435	-113.72211	-695.95770	941.50439	-385.42178	-525.45190	968.45142	136.13899	-509.02399	789.26471	-377.66086	-350.35114	781.97302	110.53584	-558.91766	828.57666	-250.01985	-544.70703	831.24231	-46.63482	-857.70300	926.83820	-97.40183	-726.53827	446.80740	-304.14911	-634.88745	445.81073	42.14595	-760.17029	76.31806	-298.07593	-648.39648	57.04240	-10.81780	
733	7.320	-383.83548	1300.50464	-39.69004	-483.77396	1465.82507	-156.00998	-438.44040	1339.13086	-257.25854	-334.46698	1199.55237	-142.57260	-622.03033	1253.36975	-317.06787	-522.48358	1225.76770	36.32823	-498.87503	1098.91138	-145.39474	-683.24707	1297.97766	-113.53635	-695.55396	941.88123	-385.54376	-525.20801	968.54803	136.37389	-508.70212	789.58484	-377.49448	-349.83191	782.10376	110.94968	-558.89917	828.20129	-249.94208	-544.47400	830.01202	-47.26774	-857.09149	926.71613	-96.92641	-726.71527	447.04608	-303.60272	-634.09973	445.31665	41.41145	-760.09375	76.21975	-297.59525	-648.28986	57.01809	-10.81559	
734	7.330	-383.02652	1300.63574	-39.99581	-483.43112	1465.92542	-156.08167	-437.94162	1338.87769	-257.08136	-333.98648	1199.76074	-142.80232	-621.81549	1253.59326	-317.02914	-521.26581	1225.71619	36.61792	-498.73727	1098.92297	-145.24420	-682.45819	1297.91016	-113.08810	-694.86536	941.87012	-385.00931	-524.53186	968.23022	136.50546	-508.18033	789.88019	-377.64621	-349.06778	782.13623	110.79194	-558.89917	828.20129	-249.94208	-545.00024	829.06824	-47.74242	-856.62360	926.69495	-96.13428	-726.67548	447.05981	-303.60541	-633.54895	445.46048	41.88456	-760.08252	76.23856	-297.59232	-648.23822	56.98253	-10.85514	
735	7.340	-382.89227	1300.47144	-39.95033	-482.71884	1466.26196	-156.21402	-437.56775	1339.08301	-257.14539	-333.49402	1199.79211	-142.82182	-621.94757	1254.10583	-316.84811	-520.89142	1225.51733	36.02570	-498.42352	1098.93384	-144.94115	-682.02466	1297.90491	-112.61051	-694.62744	942.02277	-385.08981	-524.14325	968.39783	136.61647	-507.93793	790.05920	-377.62305	-347.67883	781.98480	110.60763	-558.89917	828.20129	-249.94208	-544.31110	829.02362	-47.51826	-855.99213	926.90363	-95.41314	-726.62079	447.10965	-303.60065	-632.81598	445.25388	41.59245	-760.00720	76.50934	-297.45566	-648.22235	56.93762	-10.92531	
736	7.350	-382.63492	1300.43518	-40.16142	-482.29147	1466.28479	-155.96599	-437.18356	1339.21533	-257.40396	-332.76932	1199.79541	-142.41129	-621.43579	1253.64514	-316.45529	-518.07269	1226.19678	38.97275	-498.06049	1098.88672	-144.74168	-681.64026	1297.84558	-112.31593	-694.30530	942.08746	-385.01495	-523.41077	968.03387	136.92351	-507.53049	790.27649	-378.00543	-346.43628	782.36713	110.41142	-558.58527	828.04034	-250.04413	-543.70306	828.90503	-47.28048	-855.47260	926.69263	-94.69816	-726.47101	447.35141	-303.37787	-632.23798	444.96545	41.35386	-760.00348	76.54162	-297.44818				
